<svg width="24" height="24" viewBox="0 0 24 24" fill="none" xmlns="http://www.w3.org/2000/svg">
<g id="ic/24/social/facebook">
<path id="Shape" fill-rule="evenodd" clip-rule="evenodd" d="M19.5 3H4.5C3.66003 3 3 3.66003 3 4.5V19.5C3 20.34 3.66003 21 4.5 21H11.4H15H19.5C20.34 21 21 20.34 21 19.5V4.5C21 3.66003 20.34 3 19.5 3ZM12.0519 14.2609H9.80005V11.9652H12.0519V9.95654C12.0519 8.32092 13.2904 6.94348 14.8667 6.80005H17.4V9.0957H15.1482C14.6697 9.0957 14.3037 9.46875 14.3037 9.95654V11.9652H17.1185V14.2609H14.3038V20.2001H12.0519V14.2609ZM14.9286 20.2001H19.3215C19.8193 20.2001 20.2001 19.8193 20.2001 19.3215V4.67859C20.2001 4.18079 19.8193 3.80005 19.3215 3.80005H4.67859C4.18079 3.80005 3.80005 4.18079 3.80005 4.67859V19.3215C3.80005 19.8193 4.18079 20.2001 4.67859 20.2001H11.4143V14.9286H9.07141V11.4143H11.4143V9.95007C11.4143 7.98792 12.9373 6.3186 14.8993 6.14294H18.15V9.65723H15.2214C15.0458 9.65723 14.9286 9.77429 14.9286 9.95007V11.4143H17.8572V14.9286H14.9286V20.2001Z" fill="white"/>
<mask id="mask0" mask-type="alpha" maskUnits="userSpaceOnUse" x="3" y="3" width="18" height="18">
<path id="Shape_2" fill-rule="evenodd" clip-rule="evenodd" d="M19.5 3H4.5C3.66003 3 3 3.66003 3 4.5V19.5C3 20.34 3.66003 21 4.5 21H11.4H15H19.5C20.34 21 21 20.34 21 19.5V4.5C21 3.66003 20.34 3 19.5 3ZM12.0519 14.2609H9.80005V11.9652H12.0519V9.95654C12.0519 8.32092 13.2904 6.94348 14.8667 6.80005H17.4V9.0957H15.1482C14.6697 9.0957 14.3037 9.46875 14.3037 9.95654V11.9652H17.1185V14.2609H14.3038V20.2001H12.0519V14.2609ZM14.9286 20.2001H19.3215C19.8193 20.2001 20.2001 19.8193 20.2001 19.3215V4.67859C20.2001 4.18079 19.8193 3.80005 19.3215 3.80005H4.67859C4.18079 3.80005 3.80005 4.18079 3.80005 4.67859V19.3215C3.80005 19.8193 4.18079 20.2001 4.67859 20.2001H11.4143V14.9286H9.07141V11.4143H11.4143V9.95007C11.4143 7.98792 12.9373 6.3186 14.8993 6.14294H18.15V9.65723H15.2214C15.0458 9.65723 14.9286 9.77429 14.9286 9.95007V11.4143H17.8572V14.9286H14.9286V20.2001Z" fill="white"/>
</mask>
<g mask="url(#mask0)">
</g>
</g>
</svg>
