<svg width="24" height="24" viewBox="0 0 24 24" fill="none" xmlns="http://www.w3.org/2000/svg">
<g id="ic/24/social/twitter">
<path id="Shape" fill-rule="evenodd" clip-rule="evenodd" d="M20.5303 6.09489C20.6525 6.06364 20.8053 6.09489 20.8969 6.18864C20.9885 6.28239 21.0191 6.43864 20.9885 6.56364C20.7136 7.46977 20.1637 8.12602 19.4915 8.46977V8.5634C19.4915 14.5942 15.0921 19.5 9.71486 19.5C6.6902 19.5 4.24611 18.9688 3.14625 18.0627C3.02394 17.9377 2.9629 17.7814 3.02394 17.5939C3.0851 17.4377 3.23781 17.3127 3.42116 17.3127C5.22377 17.2814 6.38466 16.844 7.27064 16.3128C5.55983 16.094 4.49049 15.2504 3.94057 13.6568C3.87941 13.5005 3.94057 13.3443 4.06276 13.2505C4.18495 13.1568 4.3683 13.1568 4.49049 13.2193C4.94874 13.5318 5.407 13.5943 5.95692 13.5943C4.79591 12.8757 3.7267 11.6882 3.29896 10.2195C3.26832 10.0633 3.32948 9.8759 3.45167 9.8134C3.60438 9.71965 3.75722 9.7509 3.87941 9.84465C4.21547 10.1258 4.58217 10.3133 5.13209 10.407C3.94057 9.15715 3.20729 7.31352 4.24599 5.28252L4.42934 4.90752L4.73476 5.22002C6.62904 7.25102 8.3705 8.18852 11.548 8.8134V8.6884C11.548 6.40739 13.2894 4.53252 15.4586 4.50127C16.314 4.50127 17.5055 5.12627 17.9944 5.40752C18.006 5.40752 18.0177 5.41203 18.0277 5.41594C18.0438 5.42229 18.0556 5.4268 18.0556 5.40752C18.6665 5.22002 19.3998 4.90752 20.2553 4.53252C20.3775 4.47002 20.5303 4.50127 20.6218 4.59502C20.7136 4.68877 20.7442 4.81377 20.683 4.97002C20.5303 5.40752 20.2859 5.87627 19.9192 6.31364L20.5303 6.09489ZM18.7355 8.23784L18.9133 8.17741C19.4765 7.96623 19.8025 7.51347 20.01 7.12126L18.854 7.5136C18.7058 7.5739 18.528 7.5136 18.4688 7.36272C18.4094 7.21172 18.4391 7.03069 18.5576 6.94011C19.0319 6.54778 19.3876 6.12529 19.6543 5.67265C19.0615 5.91399 18.528 6.12529 18.0834 6.27617C17.9055 6.33647 17.7277 6.30632 17.5498 6.21587L17.532 6.20598C17.1845 6.01274 16.0856 5.40141 15.4158 5.4312C13.6373 5.46135 12.2146 7.00053 12.2146 8.87163V9.7166L11.859 9.6563C8.59852 9.05266 6.79054 8.17741 4.89357 6.27617C4.00429 8.56975 5.84205 10.1694 6.46449 10.622L7.20546 11.1652H6.28663C5.69374 11.1652 5.04176 11.1049 4.44887 10.8333C5.10097 12.2215 6.43483 13.2476 7.56117 13.5796L7.47218 14.1832C7.23512 14.1832 6.99794 14.1832 6.76088 14.2133C6.13844 14.2436 5.57521 14.2436 5.04176 14.0624C5.63454 15.2093 6.67201 15.6922 8.36146 15.6922H9.25062L8.50966 16.2354C7.59083 16.9596 6.40517 17.6236 4.36 17.7746C5.33815 18.2574 7.14613 18.7101 9.8434 18.7101C14.4647 18.7101 18.7355 13.9991 18.7355 8.7509V8.23784Z" fill="white"/>
<mask id="mask0" mask-type="alpha" maskUnits="userSpaceOnUse" x="3" y="4" width="18" height="16">
<path id="Shape_2" fill-rule="evenodd" clip-rule="evenodd" d="M20.5303 6.09489C20.6525 6.06364 20.8053 6.09489 20.8969 6.18864C20.9885 6.28239 21.0191 6.43864 20.9885 6.56364C20.7136 7.46977 20.1637 8.12602 19.4915 8.46977V8.5634C19.4915 14.5942 15.0921 19.5 9.71486 19.5C6.6902 19.5 4.24611 18.9688 3.14625 18.0627C3.02394 17.9377 2.9629 17.7814 3.02394 17.5939C3.0851 17.4377 3.23781 17.3127 3.42116 17.3127C5.22377 17.2814 6.38466 16.844 7.27064 16.3128C5.55983 16.094 4.49049 15.2504 3.94057 13.6568C3.87941 13.5005 3.94057 13.3443 4.06276 13.2505C4.18495 13.1568 4.3683 13.1568 4.49049 13.2193C4.94874 13.5318 5.407 13.5943 5.95692 13.5943C4.79591 12.8757 3.7267 11.6882 3.29896 10.2195C3.26832 10.0633 3.32948 9.8759 3.45167 9.8134C3.60438 9.71965 3.75722 9.7509 3.87941 9.84465C4.21547 10.1258 4.58217 10.3133 5.13209 10.407C3.94057 9.15715 3.20729 7.31352 4.24599 5.28252L4.42934 4.90752L4.73476 5.22002C6.62904 7.25102 8.3705 8.18852 11.548 8.8134V8.6884C11.548 6.40739 13.2894 4.53252 15.4586 4.50127C16.314 4.50127 17.5055 5.12627 17.9944 5.40752C18.006 5.40752 18.0177 5.41203 18.0277 5.41594C18.0438 5.42229 18.0556 5.4268 18.0556 5.40752C18.6665 5.22002 19.3998 4.90752 20.2553 4.53252C20.3775 4.47002 20.5303 4.50127 20.6218 4.59502C20.7136 4.68877 20.7442 4.81377 20.683 4.97002C20.5303 5.40752 20.2859 5.87627 19.9192 6.31364L20.5303 6.09489ZM18.7355 8.23784L18.9133 8.17741C19.4765 7.96623 19.8025 7.51347 20.01 7.12126L18.854 7.5136C18.7058 7.5739 18.528 7.5136 18.4688 7.36272C18.4094 7.21172 18.4391 7.03069 18.5576 6.94011C19.0319 6.54778 19.3876 6.12529 19.6543 5.67265C19.0615 5.91399 18.528 6.12529 18.0834 6.27617C17.9055 6.33647 17.7277 6.30632 17.5498 6.21587L17.532 6.20598C17.1845 6.01274 16.0856 5.40141 15.4158 5.4312C13.6373 5.46135 12.2146 7.00053 12.2146 8.87163V9.7166L11.859 9.6563C8.59852 9.05266 6.79054 8.17741 4.89357 6.27617C4.00429 8.56975 5.84205 10.1694 6.46449 10.622L7.20546 11.1652H6.28663C5.69374 11.1652 5.04176 11.1049 4.44887 10.8333C5.10097 12.2215 6.43483 13.2476 7.56117 13.5796L7.47218 14.1832C7.23512 14.1832 6.99794 14.1832 6.76088 14.2133C6.13844 14.2436 5.57521 14.2436 5.04176 14.0624C5.63454 15.2093 6.67201 15.6922 8.36146 15.6922H9.25062L8.50966 16.2354C7.59083 16.9596 6.40517 17.6236 4.36 17.7746C5.33815 18.2574 7.14613 18.7101 9.8434 18.7101C14.4647 18.7101 18.7355 13.9991 18.7355 8.7509V8.23784Z" fill="white"/>
</mask>
<g mask="url(#mask0)">
</g>
</g>
</svg>
